<?xml version="1.0" standalone="no"?>
<!DOCTYPE svg PUBLIC "-//W3C//DTD SVG 20010904//EN"
 "http://www.w3.org/TR/2001/REC-SVG-20010904/DTD/svg10.dtd">
<svg version="1.0" xmlns="http://www.w3.org/2000/svg"
 width="860.000000pt" height="669.000000pt" viewBox="0 0 860.000000 669.000000"
 preserveAspectRatio="xMidYMid meet">
<metadata>
Created by potrace 1.16, written by Peter Selinger 2001-2019
</metadata>
<g transform="translate(0.000000,669.000000) scale(0.100000,-0.100000)"
fill="#000000" stroke="none">
<path d="M4093 6269 c59 -137 97 -264 97 -327 l0 -35 -52 7 c-80 10 -165 35
-245 72 -78 35 -79 35 -62 -36 14 -60 14 -215 -1 -285 -6 -31 -10 -58 -8 -61
2 -2 37 10 76 27 71 29 224 68 271 69 23 0 24 -2 18 -59 -7 -64 -49 -205 -78
-263 -11 -21 -29 -43 -42 -49 -46 -24 -131 -105 -164 -156 -18 -29 -43 -84
-55 -121 -20 -62 -25 -70 -68 -94 l-45 -25 -17 37 c-30 71 -106 97 -181 61
-51 -25 -57 -26 -57 -7 0 8 -16 28 -35 45 -31 27 -43 31 -91 31 -48 0 -59 -4
-85 -30 l-30 -30 -30 35 c-53 60 -135 59 -193 -1 l-34 -35 -37 26 c-79 53
-185 13 -205 -77 -4 -22 -12 -32 -21 -29 -53 14 -106 11 -137 -9 -35 -22 -62
-72 -62 -115 0 -24 -2 -25 -34 -20 -75 15 -156 -52 -156 -129 0 -29 -29 -52
-77 -62 -25 -5 -33 -2 -42 14 -13 24 -70 52 -108 52 -15 0 -45 -9 -66 -20 -44
-24 -47 -24 -47 -6 0 21 -64 73 -99 81 -38 8 -67 0 -108 -31 l-32 -24 -17 29
c-42 71 -144 81 -210 20 -20 -19 -21 -19 -40 2 -63 69 -169 62 -220 -16 l-17
-26 -28 27 c-62 59 -170 36 -206 -43 -10 -21 -18 -39 -19 -41 -1 -2 -12 2 -24
8 -31 17 -92 15 -129 -4 -20 -11 -40 -34 -54 -64 -21 -45 -24 -47 -73 -53 -68
-9 -98 -31 -135 -99 -24 -46 -41 -63 -80 -85 -57 -31 -74 -53 -88 -115 -6 -25
-22 -71 -36 -103 -144 -326 -69 -766 192 -1129 68 -95 217 -254 297 -318 31
-25 56 -48 56 -51 0 -4 -21 -9 -47 -13 -77 -10 -81 -16 -42 -72 79 -115 265
-287 474 -436 l90 -65 5 -91 c5 -80 9 -95 35 -133 41 -59 119 -99 191 -99 63
0 104 15 158 59 21 17 42 28 47 25 5 -3 9 -88 9 -190 0 -151 -3 -184 -14 -184
-8 0 -28 -16 -45 -35 -41 -47 -41 -89 -1 -140 25 -31 28 -40 18 -59 -6 -11
-39 -72 -74 -133 -35 -62 -64 -117 -64 -123 0 -5 34 -70 76 -145 l76 -135 -31
-35 c-46 -53 -36 -134 22 -167 18 -10 494 -14 2417 -16 1317 -2 2433 0 2479 3
75 6 88 10 113 35 39 40 39 102 -1 150 l-28 35 73 130 c41 71 74 137 74 146 0
10 -33 75 -74 146 l-73 128 28 33 c21 23 29 43 29 70 0 47 -32 100 -65 108
l-25 6 0 177 c0 119 4 181 11 188 9 9 27 1 70 -29 50 -35 68 -42 119 -46 76
-6 131 14 184 65 52 51 66 88 66 177 0 73 1 76 33 98 256 185 461 370 537 482
37 56 34 62 -42 72 -27 4 -48 9 -48 13 0 3 25 26 55 50 81 65 214 206 290 307
36 49 94 148 130 219 160 324 187 628 78 900 -20 49 -40 107 -45 128 -12 56
-35 85 -88 112 -37 19 -53 35 -78 83 -38 70 -67 92 -136 101 -49 6 -52 8 -73
53 -14 30 -34 53 -54 64 -37 19 -98 21 -129 4 -12 -6 -23 -10 -24 -8 -1 2 -9
20 -19 41 -20 44 -69 77 -115 77 -35 0 -90 -24 -107 -47 -9 -11 -15 -8 -33 16
-52 71 -146 80 -206 22 -30 -29 -34 -31 -47 -15 -19 23 -71 44 -110 44 -39 0
-82 -25 -103 -61 l-17 -28 -35 24 c-71 48 -136 39 -190 -28 l-28 -35 -35 19
c-20 10 -49 19 -64 19 -38 0 -95 -28 -108 -52 -9 -16 -17 -19 -42 -14 -53 11
-74 31 -80 76 -10 73 -88 130 -157 115 -27 -6 -30 -4 -30 20 0 43 -27 93 -62
115 -31 20 -84 23 -137 9 -9 -3 -17 7 -21 29 -9 41 -35 71 -77 88 -48 21 -86
17 -128 -11 l-37 -26 -34 35 c-58 59 -140 61 -191 2 l-29 -33 -34 29 c-28 23
-44 28 -87 28 -44 0 -58 -5 -87 -31 -19 -16 -38 -39 -41 -49 -6 -19 -7 -19
-36 3 -39 28 -113 30 -153 4 -16 -11 -36 -36 -44 -56 l-16 -38 -52 26 c-44 22
-52 31 -58 61 -17 98 -98 214 -205 293 -65 48 -103 123 -132 259 -25 125 -25
128 10 128 43 0 208 -44 275 -74 32 -14 62 -26 66 -26 5 0 2 24 -6 53 -18 67
-18 215 0 292 8 33 13 62 10 64 -2 2 -34 -10 -71 -27 -73 -34 -217 -72 -271
-72 l-33 0 7 48 c9 67 51 208 79 270 l24 53 -37 -8 c-50 -11 -309 -10 -351 1
-28 8 -33 7 -28 -5z m-613 -1684 c87 -28 194 -74 187 -81 -2 -2 -21 5 -42 16
-22 11 -50 20 -63 20 -40 0 -90 -30 -113 -67 -21 -34 -21 -34 -43 -15 -64 58
-122 56 -189 -6 l-27 -26 -16 22 c-38 54 -127 68 -185 29 l-34 -23 -30 31
c-17 16 -39 35 -50 42 -18 10 -16 13 30 34 113 51 159 59 330 55 141 -3 170
-7 245 -31z m2086 20 c34 -8 88 -26 120 -41 54 -23 57 -27 39 -37 -11 -7 -33
-26 -50 -42 l-30 -31 -34 23 c-58 39 -147 25 -185 -29 l-16 -22 -27 26 c-67
62 -125 64 -189 6 -22 -19 -22 -19 -43 15 -23 37 -73 67 -113 67 -13 0 -41 -9
-63 -20 -21 -11 -41 -18 -43 -15 -14 14 204 91 308 108 64 11 269 6 326 -8z
m-3709 -341 c65 -8 123 -17 130 -19 9 -3 5 -24 -12 -76 -44 -130 -58 -215 -58
-364 0 -182 22 -283 119 -570 42 -121 84 -258 93 -305 l18 -85 69 -47 c38 -27
133 -92 212 -145 150 -104 174 -133 107 -133 -21 0 -35 -5 -35 -12 0 -23 59
-137 108 -211 70 -105 68 -101 35 -84 -36 19 -153 50 -161 43 -3 -3 4 -29 15
-59 l19 -52 -26 -42 c-36 -56 -56 -148 -38 -171 54 -71 105 -125 134 -143 27
-16 34 -27 34 -52 0 -49 11 -77 28 -77 8 0 39 13 69 30 54 31 93 39 93 19 0
-16 -58 -96 -83 -114 -70 -49 -159 -42 -224 18 -62 57 -87 109 -78 161 18 98
4 143 -58 190 -35 26 -114 27 -151 2 -60 -39 -83 -124 -51 -185 8 -16 31 -42
52 -59 l37 -30 -30 -48 c-36 -60 -90 -91 -136 -78 -35 10 -80 61 -103 118 -19
45 -27 45 103 -3 45 -17 82 -27 82 -22 0 5 -18 32 -40 60 -35 44 -40 57 -40
103 0 29 -5 70 -11 91 -10 38 -143 217 -160 217 -5 0 -27 29 -49 64 l-40 64
-41 -9 c-22 -5 -63 -21 -89 -34 -27 -14 -54 -25 -59 -25 -12 0 -76 135 -85
177 -17 84 -27 378 -16 513 6 87 7 147 1 153 -5 5 -45 23 -88 41 -121 49 -229
120 -318 211 -84 84 -129 152 -174 257 -24 58 -26 74 -26 203 l0 140 38 79
c99 208 316 312 659 315 58 1 160 -6 225 -15z m5383 -14 c191 -47 318 -140
387 -286 l38 -79 0 -140 c0 -129 -2 -145 -26 -203 -89 -209 -264 -376 -492
-468 -43 -18 -83 -36 -89 -42 -6 -6 -5 -62 2 -154 12 -148 0 -461 -20 -525
-16 -53 -70 -163 -80 -163 -6 0 -33 11 -60 25 -26 13 -67 29 -89 34 l-41 9
-40 -64 c-22 -35 -44 -64 -49 -64 -17 0 -150 -179 -160 -217 -6 -21 -11 -62
-11 -91 0 -46 -5 -59 -40 -103 -22 -28 -40 -55 -40 -60 0 -7 89 22 173 56 24
10 22 -6 -8 -66 -59 -116 -166 -115 -226 3 -25 48 -24 50 11 70 38 22 70 74
70 116 0 133 -153 198 -244 104 -38 -40 -49 -86 -34 -144 11 -43 10 -52 -12
-98 -30 -64 -86 -115 -141 -130 -51 -14 -89 -8 -136 21 -37 23 -93 93 -93 116
0 22 42 15 95 -17 28 -16 57 -30 66 -30 18 0 29 28 29 77 0 25 7 36 34 52 29
18 80 72 134 143 18 23 -2 115 -38 171 l-26 42 19 52 c11 30 18 56 15 59 -8 7
-125 -24 -161 -43 -34 -17 -35 -22 36 85 46 69 107 189 107 212 0 5 -16 10
-35 10 -27 0 -35 4 -35 18 1 20 26 39 245 186 88 60 163 111 167 115 4 3 14
41 23 84 9 43 52 182 96 309 102 296 122 390 122 573 0 149 -13 233 -57 363
-28 82 -35 74 84 91 41 6 86 13 100 15 65 12 348 -4 430 -24z m-3271 -141 c23
-67 25 -90 25 -249 l1 -175 -37 -107 c-70 -203 -160 -350 -310 -504 -54 -55
-98 -106 -98 -112 0 -6 46 -48 103 -93 137 -111 281 -236 342 -298 l49 -51
-33 0 -34 0 7 -41 c8 -51 47 -146 92 -222 19 -32 34 -60 34 -63 0 -2 -12 2
-27 9 -33 17 -113 43 -161 52 l-34 7 3 -60 c4 -58 3 -60 -37 -101 -23 -22 -54
-65 -70 -95 -26 -51 -27 -56 -14 -83 8 -15 45 -58 82 -95 l67 -68 -6 -50 c-5
-45 -4 -50 14 -50 24 0 153 52 199 80 26 17 37 19 54 10 26 -14 25 -26 -6 -72
-75 -108 -234 -146 -361 -86 -42 20 -133 109 -133 130 0 6 10 26 21 45 31 50
23 132 -16 173 -76 79 -215 46 -241 -56 -10 -40 3 -104 25 -128 12 -12 21 -29
21 -37 0 -27 -66 -94 -121 -124 -45 -24 -66 -29 -124 -30 -59 0 -78 5 -123 30
-54 29 -96 73 -126 132 -20 39 -20 39 -1 47 9 3 49 -13 93 -39 42 -24 101 -53
130 -64 l52 -21 0 21 c0 12 -5 38 -11 58 -10 33 -8 41 15 75 14 21 35 63 46
93 l21 56 -38 56 c-21 31 -58 75 -82 99 -37 36 -44 50 -50 95 -6 51 -7 52 -36
49 -17 -2 -54 -14 -84 -28 -30 -13 -55 -23 -57 -21 -2 2 4 25 12 52 20 68 35
192 28 232 -5 28 -11 32 -40 35 l-34 3 37 55 c38 57 164 188 222 232 18 14 31
30 27 36 -3 6 -56 45 -116 87 -401 277 -597 544 -641 872 -12 88 -7 206 12
276 9 33 18 42 42 38 4 -1 76 -13 160 -26 357 -60 704 -42 1077 55 80 20 149
37 155 35 5 -1 21 -35 34 -76z m886 32 c351 -90 717 -104 1075 -41 160 28 157
28 171 -22 20 -71 14 -290 -11 -383 -70 -271 -251 -495 -597 -741 -73 -52
-135 -100 -139 -106 -4 -6 3 -20 17 -30 84 -66 149 -132 200 -201 33 -43 59
-83 59 -88 0 -5 -13 -9 -29 -9 -25 0 -30 -5 -35 -33 -7 -40 8 -164 28 -232 8
-27 14 -50 12 -52 -2 -2 -27 8 -57 21 -30 14 -67 26 -84 28 -29 3 -30 2 -36
-49 -6 -45 -13 -59 -50 -95 -24 -24 -61 -68 -82 -99 l-38 -56 21 -56 c11 -30
32 -72 46 -93 23 -34 25 -42 15 -75 -6 -20 -11 -46 -11 -58 l0 -21 53 21 c28
11 87 40 131 65 53 31 82 42 89 35 26 -26 -62 -145 -135 -182 -28 -14 -58 -19
-121 -19 -74 0 -88 3 -128 29 -25 15 -63 49 -84 75 l-38 47 20 22 c31 34 43
62 43 102 0 96 -93 165 -183 136 -85 -29 -122 -127 -78 -211 l22 -42 -21 -33
c-54 -88 -132 -128 -245 -128 -84 -1 -116 10 -181 60 -31 23 -91 100 -83 107
28 24 52 26 82 7 41 -25 180 -81 202 -81 14 0 16 9 13 54 -3 53 -2 55 44 95
26 23 63 64 83 92 l37 50 -33 56 c-19 31 -51 75 -73 97 -36 39 -38 43 -33 93
3 29 2 55 -3 58 -11 7 -152 -30 -191 -50 -36 -19 -36 -22 15 68 41 74 85 188
86 225 0 18 -5 22 -32 22 l-32 0 39 41 c74 76 340 303 439 375 l30 22 -105
109 c-122 126 -192 225 -260 367 -108 227 -133 455 -72 666 23 81 31 93 56 85
12 -3 90 -23 172 -44z"/>
</g>
</svg>
